<svg xmlns="http://www.w3.org/2000/svg" width="123" height="103.694" viewBox="0 0 123 103.694">
  <g id="Group_7207" data-name="Group 7207" transform="translate(-107.122 -282)">
    <g id="QusrAE" transform="translate(107.121 282)">
      <g id="Group_1" data-name="Group 1" transform="translate(0 0)">
        <path id="Path_1" data-name="Path 1" d="M-843.185,1540.327c-.866-.889-1.694-1.762-2.545-2.611q-8.82-8.809-17.648-17.61a2.171,2.171,0,0,1-.246-3.188,19.865,19.865,0,0,1,13.881-7.712,19.893,19.893,0,0,1,13.982,3.519,19.916,19.916,0,0,1,8.79,15.94,19.948,19.948,0,0,1-6.482,15.967,20.591,20.591,0,0,1-28.947-.954c-2.48-2.7-2.467-3.144.157-5.713.565-.553,1.12-1.118,1.679-1.678,1.3-1.3,2.646-1.24,3.758.248a12.045,12.045,0,0,0,5.391,4.03A11.36,11.36,0,0,0-843.185,1540.327Zm6.489-6.513c2.023-4.305.645-9.744-3.369-13.2-3.438-2.959-8.666-3.343-11.569-1.783Z" transform="translate(864.235 -1460.289)" fill="#283462"/>
        <path id="Path_2" data-name="Path 2" d="M-614.087,1294a11.539,11.539,0,0,0,13.651-3.855,2.208,2.208,0,0,1,3.692-.293c.985.971,1.967,1.944,2.933,2.934a2.178,2.178,0,0,1,.152,3.19,19.827,19.827,0,0,1-13.735,7.578c-8.936.844-15.762-2.663-20.307-10.349-5.285-8.939-2.441-20.915,6.218-26.863a20.535,20.535,0,0,1,27.672,3.961c1.1,1.358,1.05,2.32-.175,3.543q-9.727,9.716-19.453,19.432C-613.643,1293.484-613.824,1293.708-614.087,1294Zm-6.423-6.461c5-5,9.945-9.944,14.884-14.889.039-.039.04-.117.056-.177-3.489-1.919-8.829-.874-12.312,2.409C-621.258,1278.066-622.434,1283.549-620.511,1287.542Z" transform="translate(676.675 -1262.687)" fill="#283462"/>
        <path id="Path_3" data-name="Path 3" d="M-429.844,1262.806a20.478,20.478,0,0,1,20.44,20.361,20.476,20.476,0,0,1-20.519,20.679,20.453,20.453,0,0,1-20.534-20.66A20.46,20.46,0,0,1-429.844,1262.806Zm11.561,20.738a11.648,11.648,0,0,0-11.3-11.849,11.653,11.653,0,0,0-12.016,11.343,11.7,11.7,0,0,0,11.56,11.945A11.708,11.708,0,0,0-418.283,1283.543Z" transform="translate(532.393 -1262.782)" fill="#283462"/>
        <path id="Path_4" data-name="Path 4" d="M-805.361,1291.628c0,3.2.008,6.4,0,9.6-.006,1.953-.763,2.7-2.693,2.7-1.122,0-2.244,0-3.365,0-2.38.008-3.032-.641-3.036-3.061-.01-5.938.19-11.886-.076-17.813a11.715,11.715,0,0,0-12.654-10.933,12.019,12.019,0,0,0-11.119,12.412c.058,5.641.011,11.283.01,16.925,0,1.693-.76,2.458-2.47,2.47-1.386.01-2.772.021-4.157,0a2.1,2.1,0,0,1-2.371-2.383c-.008-6.17-.069-12.34.016-18.509A20.859,20.859,0,0,1-828.525,1263c8.3-.679,14.889,2.414,19.636,9.248a20.467,20.467,0,0,1,3.525,11.855C-805.352,1286.613-805.362,1289.121-805.361,1291.628Z" transform="translate(850.672 -1262.867)" fill="#283462"/>
        <path id="Path_5" data-name="Path 5" d="M-413.155,1521.141c0,3.594.281,7.215-.053,10.778-.948,10.11-9.923,18.065-20.072,18.368a20.988,20.988,0,0,1-21.1-16.369,26.119,26.119,0,0,1-.525-5.2c-.067-5.478-.03-10.957-.028-16.435a9.7,9.7,0,0,1,.061-1.186,1.878,1.878,0,0,1,1.9-1.781c1.748-.036,3.5-.029,5.247,0a1.788,1.788,0,0,1,1.8,1.65,13.079,13.079,0,0,1,.079,1.876c.006,5.346-.007,10.693.007,16.039a11.9,11.9,0,0,0,13.107,12.13,11.962,11.962,0,0,0,10.544-10.108,46.254,46.254,0,0,0,.179-4.835c.023-4.719.01-9.439.012-14.158,0-2.048.587-2.619,2.669-2.613q1.98.006,3.96,0c1.622-.009,2.355.682,2.367,2.341.021,3.168.006,6.337.006,9.5Z" transform="translate(535.994 -1460.459)" fill="#283462"/>
        <path id="Path_6" data-name="Path 6" d="M-630.474,1521.316c0,2.738.053,5.477-.01,8.214a20.412,20.412,0,0,1-9.176,17.163,20.948,20.948,0,0,1-28.932-5.333,20.948,20.948,0,0,1-3.786-12.168q0-8.61,0-17.22c0-2.044.628-2.667,2.648-2.665,1.418,0,2.837-.008,4.255,0a1.975,1.975,0,0,1,2.131,1.976c.05.655.015,1.317.015,1.976,0,5.245-.013,10.49.005,15.736a11.963,11.963,0,0,0,9.758,11.9c6.905,1.441,14.007-4.268,14.044-11.327.031-5.872.008-11.744.009-17.615,0-1.94.681-2.636,2.583-2.638,1.353,0,2.7,0,4.057,0,1.7,0,2.383.678,2.389,2.407.013,3.2,0,6.4,0,9.6Z" transform="translate(710.372 -1460.468)" fill="#283462"/>
        <path id="Path_7" data-name="Path 7" d="M-615.459,1731.659a5.345,5.345,0,0,1,5.339,5.352,5.4,5.4,0,0,1-5.342,5.477,5.449,5.449,0,0,1-5.508-5.324A5.384,5.384,0,0,1-615.459,1731.659Z" transform="translate(669.14 -1638.794)" fill="#feaf33"/>
        <path id="Path_8" data-name="Path 8" d="M-375.07,1510.163a5.451,5.451,0,0,1,5.479-5.451,5.415,5.415,0,0,1,5.391,5.425,5.462,5.462,0,0,1-5.421,5.414A5.458,5.458,0,0,1-375.07,1510.163Z" transform="translate(471.934 -1456.786)" fill="#feaf33"/>
        <path id="Path_9" data-name="Path 9" d="M-556.42,1742.424a5.342,5.342,0,0,1-5.379-5.308,5.485,5.485,0,0,1,4.918-5.5,5.428,5.428,0,0,1,5.921,5.08A5.4,5.4,0,0,1-556.42,1742.424Z" transform="translate(621.69 -1638.753)" fill="#feaf33"/>
      </g>
    </g>
  </g>
</svg>
