<svg width="336" height="105" viewBox="0 0 336 105" fill="none" xmlns="http://www.w3.org/2000/svg">
<g clip-path="url(#clip0_1749_8316)">
<path d="M123.016 64.4639C122.793 64.8781 122.445 65.2104 121.957 65.4705C121.474 65.7306 120.85 65.8606 120.092 65.8606H118.424V69.5742H116.916V60.418H120.092C120.797 60.418 121.392 60.5384 121.885 60.7792C122.373 61.02 122.74 61.3475 122.982 61.7618C123.223 62.176 123.344 62.6384 123.344 63.1441C123.344 63.6113 123.233 64.0496 123.016 64.4639ZM121.377 64.2471C121.658 63.987 121.802 63.6209 121.802 63.1489C121.802 62.1471 121.232 61.6462 120.096 61.6462H118.429V64.6372H120.096C120.667 64.6372 121.097 64.5072 121.377 64.2471Z" fill="#6A9D1A"/>
<path d="M125.346 61.078C125.162 60.8949 125.07 60.6638 125.07 60.394C125.07 60.1243 125.162 59.8931 125.346 59.7101C125.529 59.527 125.761 59.4355 126.032 59.4355C126.303 59.4355 126.52 59.527 126.709 59.7101C126.892 59.8931 126.984 60.1243 126.984 60.394C126.984 60.6638 126.892 60.8949 126.709 61.078C126.525 61.261 126.298 61.3525 126.032 61.3525C125.766 61.3525 125.529 61.261 125.346 61.078ZM126.772 62.3158V69.5743H125.264V62.3158H126.772Z" fill="#6A9D1A"/>
<path d="M131.112 69.2283C130.556 68.9153 130.121 68.477 129.802 67.9086C129.483 67.3403 129.328 66.6852 129.328 65.9387C129.328 65.1921 129.492 64.5467 129.816 63.9735C130.14 63.4004 130.59 62.9621 131.15 62.6538C131.711 62.3455 132.344 62.1914 133.04 62.1914C133.736 62.1914 134.369 62.3455 134.93 62.6538C135.495 62.9621 135.94 63.4004 136.264 63.9735C136.588 64.5467 136.752 65.1969 136.752 65.9387C136.752 66.6804 136.583 67.3306 136.249 67.9038C135.916 68.4769 135.457 68.9153 134.882 69.2283C134.306 69.5414 133.668 69.6955 132.972 69.6955C132.276 69.6955 131.663 69.5414 131.107 69.2283H131.112ZM134.065 68.1157C134.403 67.9327 134.679 67.6533 134.891 67.2873C135.104 66.9164 135.21 66.4685 135.21 65.9435C135.21 65.4185 135.109 64.9705 134.906 64.6045C134.703 64.2384 134.432 63.9639 134.099 63.7808C133.765 63.5978 133.403 63.5063 133.016 63.5063C132.629 63.5063 132.267 63.5978 131.938 63.7808C131.609 63.9639 131.344 64.2384 131.15 64.6045C130.957 64.9705 130.86 65.4136 130.86 65.9435C130.86 66.7237 131.058 67.3306 131.46 67.7545C131.861 68.1783 132.363 68.3951 132.972 68.3951C133.359 68.3951 133.726 68.3036 134.065 68.1205V68.1157Z" fill="#6A9D1A"/>
<path d="M144.529 62.5517C144.983 62.7877 145.336 63.1393 145.592 63.6065C145.848 64.0737 145.974 64.6325 145.974 65.2923V69.5742H144.48V65.5139C144.48 64.8637 144.316 64.3675 143.992 64.0208C143.668 63.674 143.219 63.5006 142.658 63.5006C142.097 63.5006 141.648 63.674 141.314 64.0208C140.986 64.3675 140.817 64.8685 140.817 65.5139V69.5742H139.309V62.3157H140.817V63.1442C141.063 62.8455 141.377 62.6144 141.764 62.4458C142.146 62.2772 142.557 62.1953 142.987 62.1953C143.557 62.1953 144.074 62.3157 144.529 62.5517Z" fill="#6A9D1A"/>
<path d="M155.573 66.5061H150.005C150.048 67.0841 150.266 67.5513 150.652 67.9029C151.039 68.2545 151.517 68.4279 152.078 68.4279C152.89 68.4279 153.46 68.0907 153.799 67.4116H155.428C155.205 68.0811 154.809 68.6254 154.229 69.054C153.654 69.4779 152.933 69.6946 152.078 69.6946C151.382 69.6946 150.759 69.5405 150.208 69.2274C149.657 68.9143 149.226 68.476 148.912 67.9077C148.598 67.3393 148.443 66.6843 148.443 65.9378C148.443 65.1912 148.593 64.5361 148.898 63.9678C149.202 63.3994 149.628 62.966 150.179 62.6577C150.73 62.3495 151.363 62.1953 152.078 62.1953C152.793 62.1953 153.378 62.3446 153.915 62.6432C154.451 62.9419 154.872 63.3609 155.171 63.9003C155.471 64.4398 155.621 65.0611 155.621 65.7643C155.621 66.0389 155.602 66.2845 155.568 66.5013L155.573 66.5061ZM154.05 65.2923C154.04 64.7384 153.842 64.2953 153.456 63.963C153.069 63.6306 152.586 63.4621 152.015 63.4621C151.493 63.4621 151.049 63.6258 150.681 63.9581C150.314 64.2905 150.092 64.7336 150.019 65.2971H154.05V65.2923Z" fill="#6A9D1A"/>
<path d="M164.791 66.5061H159.223C159.267 67.0841 159.484 67.5513 159.871 67.9029C160.258 68.2545 160.736 68.4279 161.297 68.4279C162.109 68.4279 162.679 68.0907 163.017 67.4116H164.646C164.424 68.0811 164.028 68.6254 163.448 69.054C162.872 69.4779 162.152 69.6946 161.297 69.6946C160.601 69.6946 159.977 69.5405 159.426 69.2274C158.875 68.9143 158.445 68.476 158.131 67.9077C157.817 67.3393 157.662 66.6843 157.662 65.9378C157.662 65.1912 157.812 64.5361 158.116 63.9678C158.421 63.3994 158.846 62.966 159.397 62.6577C159.948 62.3495 160.581 62.1953 161.297 62.1953C162.012 62.1953 162.597 62.3446 163.133 62.6432C163.67 62.9419 164.09 63.3609 164.39 63.9003C164.69 64.4398 164.84 65.0611 164.84 65.7643C164.84 66.0389 164.82 66.2845 164.786 66.5013L164.791 66.5061ZM163.269 65.2923C163.259 64.7384 163.061 64.2953 162.674 63.963C162.288 63.6306 161.804 63.4621 161.234 63.4621C160.712 63.4621 160.267 63.6258 159.9 63.9581C159.533 64.2905 159.31 64.7336 159.238 65.2971H163.269V65.2923Z" fill="#6A9D1A"/>
<path d="M169.768 62.5036C170.135 62.2965 170.57 62.1953 171.073 62.1953V63.751H170.691C170.101 63.751 169.652 63.9003 169.347 64.199C169.043 64.4976 168.893 65.0178 168.893 65.7547V69.5742H167.385V62.3157H168.893V63.3705C169.115 62.9997 169.405 62.7155 169.772 62.5084L169.768 62.5036Z" fill="#6A9D1A"/>
<path d="M173.596 61.078C173.412 60.8949 173.32 60.6638 173.32 60.394C173.32 60.1243 173.412 59.8931 173.596 59.7101C173.779 59.527 174.011 59.4355 174.282 59.4355C174.553 59.4355 174.77 59.527 174.959 59.7101C175.142 59.8931 175.234 60.1243 175.234 60.394C175.234 60.6638 175.142 60.8949 174.959 61.078C174.775 61.261 174.548 61.3525 174.282 61.3525C174.016 61.3525 173.779 61.261 173.596 61.078ZM175.022 62.3158V69.5743H173.514V62.3158H175.022Z" fill="#6A9D1A"/>
<path d="M183.283 62.5517C183.737 62.7877 184.09 63.1393 184.346 63.6065C184.602 64.0737 184.728 64.6325 184.728 65.2923V69.5742H183.234V65.5139C183.234 64.8637 183.07 64.3675 182.746 64.0208C182.422 63.674 181.973 63.5006 181.412 63.5006C180.851 63.5006 180.402 63.674 180.068 64.0208C179.74 64.3675 179.57 64.8685 179.57 65.5139V69.5742H178.062V62.3157H179.57V63.1442C179.817 62.8455 180.131 62.6144 180.518 62.4458C180.9 62.2772 181.311 62.1953 181.741 62.1953C182.311 62.1953 182.828 62.3157 183.283 62.5517Z" fill="#6A9D1A"/>
<path d="M191.563 62.5334C191.998 62.7549 192.341 63.0343 192.587 63.3715V62.3166H194.11V69.6955C194.11 70.365 193.97 70.9575 193.685 71.4825C193.404 72.0026 192.993 72.4169 192.462 72.7155C191.93 73.0141 191.292 73.1634 190.553 73.1634C189.567 73.1634 188.745 72.9322 188.092 72.4699C187.44 72.0075 187.068 71.3813 186.981 70.5914H188.474C188.59 70.9671 188.832 71.2754 189.209 71.5066C189.586 71.7377 190.031 71.8533 190.553 71.8533C191.162 71.8533 191.655 71.6703 192.027 71.2994C192.399 70.9286 192.587 70.3939 192.587 69.6907V68.477C192.331 68.8189 191.988 69.1079 191.548 69.3391C191.108 69.5703 190.615 69.6859 190.06 69.6859C189.426 69.6859 188.846 69.527 188.32 69.2042C187.793 68.8815 187.382 68.4336 187.077 67.8605C186.773 67.2873 186.623 66.6322 186.623 65.9049C186.623 65.1777 186.773 64.5322 187.077 63.9687C187.382 63.4052 187.798 62.9717 188.32 62.6586C188.842 62.3455 189.422 62.1914 190.06 62.1914C190.625 62.1914 191.123 62.3022 191.558 62.5286L191.563 62.5334ZM192.278 64.6334C192.07 64.2625 191.8 63.9832 191.466 63.7905C191.133 63.5978 190.77 63.5015 190.383 63.5015C189.997 63.5015 189.634 63.5978 189.301 63.7857C188.967 63.9735 188.697 64.2529 188.489 64.6141C188.281 64.9802 188.179 65.4137 188.179 65.9098C188.179 66.4059 188.281 66.849 188.489 67.2295C188.697 67.6052 188.967 67.8942 189.31 68.0916C189.654 68.2891 190.011 68.3903 190.388 68.3903C190.765 68.3903 191.137 68.2939 191.471 68.1013C191.804 67.9086 192.075 67.6244 192.283 67.2536C192.491 66.8827 192.592 66.4444 192.592 65.9435C192.592 65.4425 192.486 65.0091 192.283 64.6382L192.278 64.6334Z" fill="#6A9D1A"/>
<path d="M202.828 63.5384V67.5554C202.828 67.83 202.891 68.0226 203.021 68.143C203.147 68.2634 203.365 68.3212 203.674 68.3212H204.597V69.5735H203.408C202.731 69.5735 202.209 69.4146 201.847 69.1015C201.484 68.7836 201.306 68.2731 201.306 67.5602V63.5432H200.445V62.3199H201.306V60.5137H202.828V62.3199H204.602V63.5432H202.828V63.5384Z" fill="#6A9D1A"/>
<path d="M212.302 62.5523C212.737 62.7883 213.08 63.1399 213.331 63.6071C213.582 64.0743 213.708 64.633 213.708 65.2929V69.5748H212.215V65.5145C212.215 64.8642 212.05 64.3681 211.726 64.0213C211.403 63.6745 210.953 63.5012 210.392 63.5012C209.832 63.5012 209.382 63.6745 209.049 64.0213C208.72 64.3681 208.551 64.8691 208.551 65.5145V69.5748H207.043V59.8262H208.551V63.1592C208.807 62.8509 209.131 62.6149 209.522 62.4464C209.914 62.2778 210.344 62.1959 210.813 62.1959C211.369 62.1959 211.867 62.3163 212.302 62.5523Z" fill="#6A9D1A"/>
<path d="M223.307 66.5061H217.739C217.782 67.0841 218 67.5513 218.387 67.9029C218.773 68.2545 219.252 68.4279 219.812 68.4279C220.624 68.4279 221.195 68.0907 221.533 67.4116H223.162C222.94 68.0811 222.543 68.6254 221.963 69.054C221.388 69.4779 220.668 69.6946 219.812 69.6946C219.116 69.6946 218.493 69.5405 217.942 69.2274C217.391 68.9143 216.961 68.476 216.647 67.9077C216.332 67.3393 216.178 66.6843 216.178 65.9378C216.178 65.1912 216.328 64.5361 216.632 63.9678C216.937 63.3994 217.362 62.966 217.913 62.6577C218.464 62.3495 219.097 62.1953 219.812 62.1953C220.528 62.1953 221.113 62.3446 221.649 62.6432C222.186 62.9419 222.606 63.3609 222.906 63.9003C223.205 64.4398 223.355 65.0611 223.355 65.7643C223.355 66.0389 223.336 66.2845 223.302 66.5013L223.307 66.5061ZM221.784 65.2923C221.775 64.7384 221.577 64.2953 221.19 63.963C220.803 63.6306 220.32 63.4621 219.75 63.4621C219.228 63.4621 218.783 63.6258 218.416 63.9581C218.048 64.2905 217.826 64.7336 217.753 65.2971H221.784V65.2923Z" fill="#6A9D1A"/>
<path d="M235.807 60.418V61.6414H231.906V64.3434H234.947V65.5668H231.906V69.5742H230.398V60.418H235.807Z" fill="#6A9D1A"/>
<path d="M244.863 62.3154V69.5739H243.355V68.7165C243.119 69.0151 242.804 69.2511 242.423 69.4197C242.041 69.5883 241.63 69.675 241.2 69.675C240.625 69.675 240.112 69.5546 239.658 69.3186C239.204 69.0826 238.846 68.731 238.585 68.2638C238.324 67.7965 238.193 67.2378 238.193 66.578V62.3105H239.687V66.3564C239.687 67.0067 239.851 67.5028 240.175 67.8544C240.499 68.2011 240.948 68.3746 241.509 68.3746C242.07 68.3746 242.519 68.2011 242.853 67.8544C243.181 67.5076 243.351 67.0067 243.351 66.3564V62.3105H244.859L244.863 62.3154Z" fill="#6A9D1A"/>
<path d="M249.664 63.5384V67.5554C249.664 67.83 249.727 68.0226 249.857 68.143C249.983 68.2634 250.201 68.3212 250.51 68.3212H251.433V69.5735H250.244C249.567 69.5735 249.045 69.4146 248.683 69.1015C248.32 68.7836 248.142 68.2731 248.142 67.5602V63.5432H247.281V62.3199H248.142V60.5137H249.664V62.3199H251.438V63.5432H249.664V63.5384Z" fill="#6A9D1A"/>
<path d="M260.481 62.3154V69.5739H258.973V68.7165C258.736 69.0151 258.422 69.2511 258.04 69.4197C257.658 69.5883 257.247 69.675 256.817 69.675C256.242 69.675 255.729 69.5546 255.275 69.3186C254.821 69.0826 254.463 68.731 254.202 68.2638C253.941 67.7965 253.811 67.2378 253.811 66.578V62.3105H255.304V66.3564C255.304 67.0067 255.468 67.5028 255.792 67.8544C256.116 68.2011 256.566 68.3746 257.126 68.3746C257.687 68.3746 258.136 68.2011 258.47 67.8544C258.799 67.5076 258.968 67.0067 258.968 66.3564V62.3105H260.476L260.481 62.3154Z" fill="#6A9D1A"/>
<path d="M265.908 62.5036C266.276 62.2965 266.711 62.1953 267.213 62.1953V63.751H266.831C266.242 63.751 265.792 63.9003 265.488 64.199C265.183 64.4976 265.033 65.0178 265.033 65.7547V69.5742H263.525V62.3157H265.033V63.3705C265.256 62.9997 265.546 62.7155 265.913 62.5084L265.908 62.5036Z" fill="#6A9D1A"/>
<path d="M276.281 66.5061H270.713C270.757 67.0841 270.975 67.5513 271.361 67.9029C271.748 68.2545 272.226 68.4279 272.787 68.4279C273.599 68.4279 274.169 68.0907 274.508 67.4116H276.137C275.914 68.0811 275.518 68.6254 274.938 69.054C274.363 69.4779 273.643 69.6946 272.787 69.6946C272.091 69.6946 271.468 69.5405 270.917 69.2274C270.366 68.9143 269.935 68.476 269.621 67.9077C269.307 67.3393 269.152 66.6843 269.152 65.9378C269.152 65.1912 269.302 64.5361 269.607 63.9678C269.911 63.3994 270.337 62.966 270.888 62.6577C271.439 62.3495 272.072 62.1953 272.787 62.1953C273.502 62.1953 274.087 62.3446 274.624 62.6432C275.16 62.9419 275.581 63.3609 275.88 63.9003C276.18 64.4398 276.33 65.0611 276.33 65.7643C276.33 66.0389 276.31 66.2845 276.277 66.5013L276.281 66.5061ZM274.759 65.2923C274.749 64.7384 274.551 64.2953 274.164 63.963C273.778 63.6306 273.295 63.4621 272.724 63.4621C272.202 63.4621 271.758 63.6258 271.39 63.9581C271.023 64.2905 270.801 64.7336 270.728 65.2971H274.759V65.2923Z" fill="#6A9D1A"/>
<path d="M291.041 60.418V61.6414H288.595V69.5742H287.087V61.6414H284.627V60.418H291.041Z" fill="#6A9D1A"/>
<path d="M294.912 69.2283C294.357 68.9153 293.922 68.477 293.603 67.9086C293.284 67.3403 293.129 66.6852 293.129 65.9387C293.129 65.1921 293.293 64.5467 293.617 63.9735C293.941 63.4004 294.39 62.9621 294.951 62.6538C295.512 62.3455 296.145 62.1914 296.841 62.1914C297.537 62.1914 298.17 62.3455 298.731 62.6538C299.296 62.9621 299.741 63.4004 300.065 63.9735C300.389 64.5467 300.553 65.1969 300.553 65.9387C300.553 66.6804 300.384 67.3306 300.05 67.9038C299.717 68.4769 299.258 68.9153 298.682 69.2283C298.107 69.5414 297.469 69.6955 296.773 69.6955C296.077 69.6955 295.463 69.5414 294.908 69.2283H294.912ZM297.866 68.1157C298.204 67.9327 298.479 67.6533 298.692 67.2873C298.905 66.9164 299.011 66.4685 299.011 65.9435C299.011 65.4185 298.91 64.9705 298.707 64.6045C298.504 64.2384 298.233 63.9639 297.899 63.7808C297.566 63.5978 297.203 63.5063 296.817 63.5063C296.43 63.5063 296.068 63.5978 295.739 63.7808C295.41 63.9639 295.144 64.2384 294.951 64.6045C294.758 64.9705 294.661 65.4136 294.661 65.9435C294.661 66.7237 294.859 67.3306 295.26 67.7545C295.662 68.1783 296.164 68.3951 296.773 68.3951C297.16 68.3951 297.527 68.3036 297.866 68.1205V68.1157Z" fill="#6A9D1A"/>
<path d="M303.067 63.9741C303.371 63.4106 303.787 62.9771 304.309 62.664C304.831 62.3509 305.416 62.1968 306.058 62.1968C306.532 62.1968 307.006 62.298 307.465 62.5051C307.929 62.7122 308.296 62.9867 308.567 63.3287V59.8223H310.089V69.5709H308.567V68.4775C308.32 68.8291 307.977 69.1181 307.542 69.3493C307.107 69.5757 306.605 69.6913 306.044 69.6913C305.411 69.6913 304.831 69.5324 304.304 69.2096C303.777 68.8869 303.366 68.439 303.062 67.8658C302.757 67.2927 302.607 66.6376 302.607 65.9103C302.607 65.1831 302.757 64.5376 303.062 63.9741H303.067ZM308.262 64.634C308.055 64.2631 307.784 63.9837 307.45 63.7911C307.117 63.5984 306.754 63.5021 306.368 63.5021C305.981 63.5021 305.619 63.5984 305.285 63.7862C304.952 63.9741 304.681 64.2535 304.473 64.6147C304.265 64.9808 304.164 65.4142 304.164 65.9103C304.164 66.4064 304.265 66.8496 304.473 67.2301C304.681 67.6058 304.952 67.8947 305.295 68.0922C305.638 68.2897 305.996 68.3908 306.373 68.3908C306.75 68.3908 307.122 68.2945 307.455 68.1019C307.789 67.9092 308.059 67.625 308.267 67.2541C308.475 66.8833 308.577 66.445 308.577 65.944C308.577 65.4431 308.47 65.0097 308.267 64.6388L308.262 64.634Z" fill="#6A9D1A"/>
<path d="M313.09 63.9726C313.395 63.4091 313.81 62.9756 314.332 62.6625C314.854 62.3494 315.434 62.1953 316.072 62.1953C316.643 62.1953 317.145 62.3061 317.571 62.5325C317.996 62.7589 318.339 63.0334 318.595 63.3705V62.3157H320.118V69.5742H318.595V68.4953C318.339 68.8373 317.991 69.1215 317.551 69.3526C317.111 69.5838 316.609 69.6946 316.043 69.6946C315.42 69.6946 314.845 69.5357 314.323 69.213C313.801 68.8903 313.39 68.4423 313.085 67.8692C312.781 67.296 312.631 66.6409 312.631 65.9136C312.631 65.1864 312.781 64.541 313.085 63.9774L313.09 63.9726ZM318.286 64.6325C318.078 64.2616 317.807 63.9822 317.474 63.7896C317.14 63.5969 316.778 63.5006 316.391 63.5006C316.005 63.5006 315.642 63.5969 315.309 63.7848C314.975 63.9726 314.704 64.252 314.497 64.6132C314.289 64.9793 314.187 65.4128 314.187 65.9089C314.187 66.405 314.289 66.8481 314.497 67.2286C314.704 67.6043 314.975 67.8932 315.318 68.0907C315.661 68.2882 316.019 68.3893 316.396 68.3893C316.773 68.3893 317.145 68.293 317.479 68.1004C317.812 67.9077 318.083 67.6235 318.291 67.2527C318.498 66.8818 318.6 66.4435 318.6 65.9425C318.6 65.4416 318.494 65.0082 318.291 64.6373L318.286 64.6325Z" fill="#6A9D1A"/>
<path d="M329.717 62.3164L325.246 72.9898H323.685L325.164 69.4593L322.293 62.3164H323.97L326.019 67.8506L328.146 62.3164H329.707H329.717Z" fill="#6A9D1A"/>
<path d="M130.637 33.7051V40.9587L130.888 45.048H130.521L127.766 40.7372L122.541 33.7051H116.92V52.4702H122.203V45.1347L121.98 41.5512H122.348L124.735 45.2454L130.299 52.4702H135.92V33.7051H130.637Z" fill="#313C41"/>
<path d="M153.637 33.7051H146.078L137.953 52.4702H143.884L145.343 49.0023H154.29L155.72 52.4702H161.796L153.642 33.7051H153.637ZM147.339 44.2629L148.437 41.6282L149.645 38.4686H150.012L151.245 41.6282L152.342 44.2629H147.339Z" fill="#313C41"/>
<path d="M160.265 33.7051V38.4397H166.925V52.4702H172.208V38.4397H178.844V33.7051H160.26H160.265Z" fill="#313C41"/>
<path d="M200.518 33.7051V44.6C200.518 49.5851 197.483 52.7448 190.905 52.7448C184.326 52.7448 181.291 49.5851 181.291 44.6V33.7051H186.579V44.181C186.579 46.8445 187.338 47.6585 190.905 47.6585C194.471 47.6585 195.235 46.8445 195.235 44.181V33.7051H200.518Z" fill="#313C41"/>
<path d="M239.922 33.7051H232.363L224.238 52.4702H230.169L231.633 49.0023H240.57L242.006 52.4702H248.076L239.922 33.7051ZM233.629 44.2629L234.727 41.6282L235.935 38.4686H236.297L237.535 41.6282L238.632 44.2629H233.629Z" fill="#313C41"/>
<path d="M261.118 41.2382L255.216 40.3712C254.206 40.2267 253.868 39.9473 253.868 39.3597C253.868 38.5457 254.457 38.1893 257.154 38.1893C260.692 38.1893 261.287 38.6373 261.287 39.9811V40.4049H266.57V40.2315C266.57 36.0315 263.708 33.4258 257.715 33.4258C250.91 33.4258 248.58 36.5662 248.58 39.562C248.58 42.5579 250.349 44.4604 253.863 44.9421L259.764 45.7272C261.306 45.9198 261.674 46.1992 261.674 46.8783C261.674 47.7212 261.335 47.9716 258.136 47.9716C254.588 47.9716 254.143 47.6345 254.143 46.3726V45.785H248.86V45.9583C248.86 50.7219 252.369 52.7593 258.136 52.7593C264.487 52.7593 266.961 49.9079 266.961 46.6808C266.961 44.2726 265.724 41.9173 261.113 41.2478L261.118 41.2382Z" fill="#313C41"/>
<path d="M286.236 38.4397V33.7051H269.508V52.4702H286.236V47.7356H274.791V45.3851H285.811V40.6794H274.791V38.4397H286.236Z" fill="#313C41"/>
<path d="M304.135 33.7051H296.576L288.451 52.4702H294.382L295.846 49.0023H304.783L306.218 52.4702H312.289L304.135 33.7051ZM297.837 44.2629L298.939 41.6282L300.143 38.4686H300.51L301.748 41.6282L302.845 44.2629H297.837Z" fill="#313C41"/>
<path d="M318.838 47.7356V33.7051H313.555V52.4702H329.717V47.7356H318.838Z" fill="#313C41"/>
<path d="M219.995 47.7664C219.295 46.3359 218.676 45.416 216.738 44.9151V44.6357C220.334 44.1829 221.827 42.4249 221.827 39.4483C221.827 36.043 219.575 34.0105 215.264 33.7359C214.935 33.7167 214.592 33.707 214.239 33.707H203.248V38.4417H208.526L203.248 42.1215V52.4673H208.531V46.0806H210.691C212.746 46.0806 213.306 46.4756 213.983 47.8772L216.226 52.4673H222.33L219.995 47.7616V47.7664ZM214.176 42.1648H208.526V38.4417H214.176C215.718 38.4417 216.284 38.8029 216.284 40.2864C216.284 41.8807 215.723 42.16 214.176 42.16V42.1648Z" fill="#313C41"/>
<path d="M8.51196 29.0059L7.39062 30.682L8.51196 30.0366V29.0059Z" fill="#594018"/>
<path d="M85.1699 68.332V70.2394L86.2912 68.568L85.1699 68.332Z" fill="#594018"/>
<path d="M11.9727 71.3326V72.6957L13.094 71.0195L11.9727 71.3326Z" fill="#594018"/>
<path d="M83.2022 29.5436L81.6072 28.6284L46.2853 8.30273L13.4863 27.1738C14.2113 27.6507 15.0137 28.0408 15.8837 28.3539C16.2607 28.4887 16.6522 28.5995 17.0485 28.6959L17.295 28.7488C17.3723 28.7681 17.4497 28.7825 17.527 28.8018H17.6043L17.8943 28.8693H17.9668L18.0297 28.8837C18.078 28.8933 18.3197 28.9319 18.426 28.9463C18.658 28.9704 18.8465 28.9897 19.035 29.0041C19.035 29.0041 19.1607 29.0137 19.1848 29.0137C19.267 29.0186 19.354 29.0234 19.4361 29.0282L46.2853 13.5768L78.4269 32.0722L79.7995 32.8621L80.2587 33.1222L80.3844 33.1945L80.5922 33.3149V69.2798L85.179 70.2335V30.6754L83.2118 29.5387L83.2022 29.5436Z" fill="#594018"/>
<path d="M8.80195 31L8.59896 30.1812C8.58446 30.1234 8.57479 30.0608 8.55546 30.0078L7.39062 30.6821V74.0308C8.92279 73.5636 10.4453 73.1156 11.9726 72.6966V40.7101C10.7353 37.7865 9.67679 34.5498 8.79712 31H8.80195Z" fill="#594018"/>
<path d="M77.5992 75.0703L46.2793 93.0889L18.4249 77.0644C16.1532 77.4834 13.9009 77.941 11.6582 78.4467L46.2793 98.3678L85.1682 75.9903V75.9806C82.6259 75.629 80.1077 75.3352 77.5992 75.0703Z" fill="#594018"/>
<path d="M84.3233 27.8717L82.7283 26.9566L47.4064 6.63086L14.6074 25.502C15.3324 25.9788 16.1347 26.3689 17.0047 26.682C17.3817 26.8169 17.7732 26.9276 18.1696 27.024L18.4161 27.077C18.4934 27.0962 18.5707 27.1107 18.6481 27.1299H18.7254L19.0154 27.1974H19.0879L19.1507 27.2118C19.1991 27.2215 19.4407 27.26 19.5471 27.2744C19.7791 27.2985 19.9676 27.3178 20.1561 27.3322C20.1561 27.3322 20.2817 27.3419 20.3059 27.3419C20.3881 27.3467 20.4751 27.3515 20.5572 27.3563L47.4064 11.9049L79.548 30.4004L80.9206 31.1903L81.3798 31.4504L81.5054 31.5226L81.7133 31.643V67.6079L86.3001 68.5616V29.0036L84.3329 27.8669L84.3233 27.8717Z" fill="#8BC441"/>
<path d="M9.91915 29.3242L9.71614 28.5054C9.70164 28.4476 9.69198 28.385 9.67265 28.332L8.50781 29.0063V72.3549C10.04 71.8877 11.5625 71.4398 13.0898 71.0208V39.0343C11.8525 36.1107 10.794 32.874 9.91431 29.3242H9.91915Z" fill="#8BC441"/>
<path d="M78.7223 73.3945L47.4023 91.4131L19.5479 75.3886C17.2762 75.8076 15.0239 76.2652 12.7812 76.7709L47.4023 96.692L86.2913 74.3145V74.3049C83.7489 73.9533 81.2308 73.6594 78.7223 73.3945Z" fill="#8BC441"/>
<path d="M12.7795 76.7715L11.6582 78.4428L14.592 77.8118L12.7795 76.7715Z" fill="#594018"/>
<path d="M14.6028 25.502L13.4863 27.1781L15.4873 26.0221L14.6028 25.502Z" fill="#594018"/>
<path d="M51.2356 63.0625C50.8248 64.4593 50.6411 65.8175 50.7185 67.1276L51.7963 65.5189L51.2356 63.0625Z" fill="#3A3020"/>
<path d="M49.4314 66.6231C49.3202 66.7146 48.3535 68.2318 48.3535 68.2318L49.2573 63.6465L49.6585 65.2841L49.4314 66.6231Z" fill="#3A3020"/>
<path d="M12.4372 26.747L11.3594 28.3557C11.9297 28.9722 12.529 29.5213 13.1719 29.9885L12.4372 26.7422V26.747Z" fill="#594018"/>
<path d="M17.9277 32.1172C18.0196 32.1268 19.0781 32.2087 20.7504 32.4495C20.7262 32.4495 20.7021 32.4495 20.6827 32.4495C19.7547 32.4254 18.8364 32.3195 17.9326 32.122L17.9277 32.1172Z" fill="#594018"/>
<path d="M47.3333 48.1307C43.9306 36.8938 27.4393 33.4067 20.75 32.4434C28.9618 32.6601 36.3085 34.1629 41.9055 38.281C45.4725 40.9397 47.3091 44.2149 47.3381 48.1307H47.3333Z" fill="#594018"/>
<path d="M42.6696 57.2635C42.0799 57.933 41.3018 58.4339 40.4076 58.6796C39.0349 59.0601 37.4399 59.0697 35.6903 58.8385C23.5103 56.9215 15.8591 47.3511 12.0215 31.3555C12.036 31.4036 12.0602 31.4807 12.094 31.6011C12.1085 31.6444 12.123 31.6926 12.1375 31.7456C12.1665 31.8323 12.1955 31.9334 12.2342 32.0442C12.2535 32.1117 12.2776 32.1839 12.3066 32.261C12.3453 32.3814 12.3888 32.5114 12.4372 32.6511C12.4517 32.6945 12.4661 32.733 12.4806 32.7763C12.5193 32.8871 12.558 33.0027 12.6063 33.1279C12.6402 33.2291 12.6788 33.3302 12.7175 33.4362C12.7175 33.4458 12.7223 33.4555 12.7272 33.4651C12.7658 33.5711 12.8093 33.6818 12.8528 33.7926C12.9011 33.9275 12.9592 34.0672 13.0123 34.2068C13.0607 34.3272 13.1042 34.4477 13.1573 34.5681C13.1815 34.6355 13.2105 34.7029 13.2395 34.7752C13.3603 35.0738 13.4908 35.3869 13.6262 35.7096C13.6842 35.8445 13.7421 35.9793 13.805 36.119C13.8146 36.1383 13.8243 36.1623 13.834 36.1816C13.8968 36.3165 13.9596 36.461 14.0225 36.6006C14.1336 36.8463 14.2497 37.0967 14.3753 37.352C14.414 37.4387 14.4575 37.5206 14.501 37.6073C14.5445 37.694 14.5831 37.7807 14.6266 37.8674C14.7136 38.0408 14.8006 38.219 14.8925 38.3972C14.936 38.4887 14.9843 38.5754 15.0278 38.6669C15.0713 38.7584 15.1196 38.8451 15.168 38.9367C15.2163 39.0282 15.2646 39.1197 15.313 39.2112C15.458 39.4857 15.6126 39.7651 15.7673 40.0493C15.8736 40.2371 15.98 40.425 16.0911 40.6176C16.1443 40.714 16.2023 40.8103 16.2603 40.9066C16.3135 41.0029 16.3715 41.0993 16.4295 41.1956C16.4875 41.2919 16.5455 41.3883 16.6035 41.4846C16.6615 41.5809 16.7243 41.6772 16.7823 41.7784C16.8403 41.8795 16.9031 41.9759 16.966 42.0722C17.0191 42.1589 17.0771 42.2456 17.1303 42.3323C17.2608 42.5394 17.401 42.7465 17.5363 42.9536C17.5991 43.0548 17.6668 43.1511 17.7345 43.2522C17.7683 43.3004 17.7973 43.3438 17.8311 43.3919C17.9326 43.5413 18.039 43.6954 18.1453 43.8447C18.3531 44.1433 18.5658 44.4419 18.7881 44.7357C18.8558 44.8321 18.9283 44.9236 19.0008 45.0199C19.0878 45.1355 19.1748 45.2511 19.2666 45.3667C19.3343 45.4534 19.402 45.5401 19.4696 45.6268C19.547 45.7279 19.6243 45.8243 19.7065 45.9206C19.7838 46.0218 19.866 46.1181 19.9481 46.2144C20.0303 46.3107 20.1076 46.4119 20.1898 46.5082C20.272 46.6045 20.3541 46.7009 20.4363 46.802C20.5185 46.9032 20.6055 46.9995 20.6876 47.0958C20.7746 47.1922 20.8568 47.2885 20.9438 47.3848C21.0308 47.4812 21.1178 47.5775 21.2048 47.6738C21.2966 47.775 21.3836 47.8713 21.4755 47.9676C21.5625 48.064 21.6495 48.1555 21.7413 48.247C21.8331 48.3433 21.9201 48.4348 22.0168 48.5312C22.1086 48.6275 22.2005 48.719 22.2971 48.8153C22.389 48.9116 22.4856 49.0032 22.5823 49.0947C22.679 49.1862 22.7708 49.2777 22.8723 49.3692C23.2686 49.7449 23.6795 50.1158 24.1 50.477C24.1918 50.5589 24.2885 50.636 24.3803 50.7178C24.4866 50.8045 24.5881 50.8913 24.6993 50.978C24.8056 51.0647 24.912 51.1513 25.0183 51.2332C25.1246 51.3199 25.2358 51.4018 25.3421 51.4885C25.4533 51.5752 25.5596 51.6571 25.6708 51.7389C26.2363 52.1628 26.826 52.5722 27.435 52.9575C27.5413 53.025 27.6428 53.0924 27.754 53.155C27.8458 53.2128 27.9328 53.2658 28.0246 53.3188C28.1358 53.3862 28.2518 53.4536 28.363 53.5211C28.4451 53.5692 28.5273 53.6174 28.6143 53.6655C28.6916 53.7089 28.7641 53.7523 28.8414 53.7956C28.9429 53.8534 29.0445 53.9112 29.1508 53.9642C29.2378 54.0123 29.32 54.0557 29.407 54.099C29.4795 54.1376 29.5471 54.1761 29.6196 54.2098C29.7743 54.2917 29.9338 54.3688 30.0933 54.4458C30.1948 54.4988 30.2963 54.547 30.4026 54.5951C30.509 54.6481 30.6153 54.7011 30.7264 54.7493C30.8231 54.7926 30.9198 54.836 31.0164 54.8793C31.1904 54.9564 31.3693 55.0334 31.5433 55.1057C31.6448 55.149 31.7463 55.1924 31.8526 55.2309C32.0266 55.3032 32.2054 55.3706 32.3843 55.438C32.4858 55.4766 32.5873 55.5151 32.6888 55.5536C32.7613 55.5825 32.8289 55.6066 32.9014 55.6307C33.0368 55.6789 33.1721 55.727 33.3074 55.7704C33.4331 55.8137 33.5588 55.8571 33.6796 55.8956C33.7811 55.9293 33.8826 55.963 33.9841 55.9919C34.5351 56.1653 35.0958 56.3194 35.6709 56.4591C35.9174 56.5217 36.1688 56.5747 36.4201 56.6277C36.7778 56.7048 37.1354 56.7722 37.4979 56.83C37.6284 56.8541 37.7686 56.8782 37.8991 56.8974C38.5468 56.9986 39.2138 57.0805 39.8904 57.1383C40.1514 57.1623 40.4173 57.1816 40.6831 57.1961C40.7556 57.1961 40.8281 57.2057 40.9054 57.2105C41.0311 57.2153 41.1568 57.225 41.2824 57.2298C41.7368 57.249 42.2007 57.2587 42.6696 57.2539V57.2635Z" fill="#594018"/>
<path d="M47.3338 48.1312C47.3386 48.9211 47.271 49.7351 47.1308 50.5731C46.9471 51.652 46.3671 52.6202 45.5213 53.3137L43.8151 54.7057C43.8151 54.7057 43.8151 54.725 43.8151 54.7346C43.6943 55.6883 43.2835 56.5649 42.6696 57.2585C42.2008 57.2585 41.7368 57.2585 41.2825 57.2344C41.1568 57.2344 41.0311 57.2247 40.9055 57.2151C40.8281 57.2151 40.7556 57.2055 40.6831 57.2007C40.4173 57.1862 40.1515 57.1669 39.8905 57.1429C39.2138 57.0851 38.5468 57.0032 37.8991 56.902C37.7638 56.8828 37.6285 56.8587 37.498 56.8346C37.1355 56.772 36.7778 56.7046 36.4202 56.6323C36.1688 56.5793 35.9175 56.5215 35.671 56.4637C35.0958 56.3289 34.5352 56.1699 33.9842 55.9965C33.8827 55.9676 33.7812 55.9339 33.6797 55.9002C33.554 55.8617 33.4283 55.8183 33.3075 55.775C33.1722 55.7268 33.0368 55.6786 32.9015 55.6353C32.829 55.6112 32.7613 55.5823 32.6888 55.5582C32.5873 55.5197 32.4858 55.4812 32.3843 55.4426C32.2055 55.3752 32.0267 55.3078 31.8527 55.2355C31.7512 55.1922 31.6497 55.1488 31.5433 55.1103C31.3693 55.038 31.1905 54.961 31.0165 54.8839C30.9198 54.8406 30.8232 54.7972 30.7265 54.7539C30.6153 54.7057 30.509 54.6527 30.4027 54.5997C30.2963 54.5516 30.1948 54.4986 30.0933 54.4504C29.9338 54.3734 29.7792 54.2963 29.6197 54.2144C29.5472 54.1759 29.4795 54.1422 29.407 54.1036C29.32 54.0603 29.233 54.0121 29.1508 53.9688C29.0493 53.9158 28.9478 53.858 28.8415 53.8002C28.7642 53.7569 28.6868 53.7135 28.6143 53.6701C28.5322 53.622 28.45 53.5738 28.363 53.5257C28.247 53.4582 28.1358 53.3908 28.0247 53.3234C27.9328 53.2704 27.841 53.2126 27.754 53.1596C27.6477 53.0922 27.5413 53.0296 27.435 52.9621C26.826 52.5768 26.2363 52.1674 25.6708 51.7435C25.5597 51.6617 25.4485 51.5798 25.3422 51.4931C25.231 51.4112 25.1247 51.3245 25.0183 51.2378C24.912 51.1511 24.8057 51.0692 24.6993 50.9825C24.593 50.8958 24.4867 50.8091 24.3803 50.7224C24.2837 50.6406 24.1918 50.5635 24.1 50.4816C23.6795 50.1204 23.2687 49.7543 22.8723 49.3738C22.7757 49.2823 22.679 49.1908 22.5824 49.0993C22.4857 49.0078 22.3939 48.9114 22.2972 48.8199C22.2005 48.7284 22.1087 48.6321 22.0169 48.5358C21.925 48.4394 21.8332 48.3479 21.7414 48.2516C21.6495 48.1552 21.5625 48.0637 21.4755 47.9722C21.3837 47.8759 21.2967 47.7796 21.2049 47.6784C21.1179 47.5821 21.0309 47.4858 20.9439 47.3894C20.8569 47.2931 20.7699 47.1967 20.6877 47.1004C20.6007 47.0041 20.5185 46.9078 20.4364 46.8066C20.3542 46.7103 20.272 46.614 20.1899 46.5128C20.1077 46.4165 20.0255 46.3153 19.9482 46.219C19.866 46.1227 19.7887 46.0215 19.7065 45.9252C19.6244 45.8289 19.547 45.7277 19.4697 45.6314C19.402 45.5447 19.3344 45.458 19.2667 45.3713C19.1797 45.2557 19.0927 45.1449 19.0009 45.0245C18.9284 44.9282 18.8607 44.8367 18.7882 44.7403C18.5659 44.4465 18.3532 44.1479 18.1454 43.8493C18.039 43.7 17.9327 43.5458 17.8312 43.3965C17.7974 43.3484 17.7684 43.305 17.7345 43.2568C17.6669 43.1557 17.604 43.0594 17.5364 42.9582C17.401 42.7511 17.2609 42.544 17.1304 42.3369C17.0772 42.2502 17.0192 42.1635 16.966 42.0768C16.9032 41.9805 16.8452 41.8841 16.7824 41.783C16.7195 41.6867 16.6615 41.5903 16.6035 41.4892C16.5455 41.3929 16.4875 41.2965 16.4295 41.2002C16.3715 41.1039 16.3135 41.0075 16.2604 40.9112C16.2024 40.8149 16.1492 40.7186 16.0912 40.6222C15.98 40.4344 15.8737 40.2465 15.7674 40.0539C15.6127 39.7697 15.458 39.4903 15.313 39.2158C15.2647 39.1243 15.2164 39.0328 15.168 38.9413C15.1197 38.8497 15.0714 38.7582 15.0279 38.6715C14.9795 38.58 14.936 38.4933 14.8925 38.4018C14.8007 38.2236 14.7137 38.0454 14.6267 37.872C14.5832 37.7853 14.5397 37.6986 14.501 37.6119C14.4575 37.5252 14.4189 37.4385 14.3754 37.3566C14.2497 37.1013 14.1385 36.8509 14.0225 36.6052C13.9597 36.4656 13.8969 36.3211 13.834 36.1862C13.8244 36.1669 13.8147 36.1429 13.805 36.1236C13.7422 35.9887 13.6842 35.849 13.6262 35.7142C13.486 35.3915 13.3555 35.0784 13.2395 34.7798C13.2105 34.7075 13.1815 34.6401 13.1574 34.5727C13.109 34.4523 13.0607 34.327 13.0124 34.2114C12.9592 34.0718 12.9012 33.9321 12.8529 33.7972C12.8094 33.6864 12.7707 33.5757 12.7272 33.4697C12.7272 33.4601 12.7224 33.4504 12.7175 33.4408C12.6789 33.3348 12.6402 33.2289 12.6064 33.1325C12.5629 33.0073 12.5194 32.8917 12.4807 32.7809C12.4662 32.7376 12.4517 32.6942 12.4372 32.6557C12.3889 32.516 12.3454 32.386 12.3067 32.2656C12.2825 32.1885 12.2584 32.1163 12.2342 32.0488C12.2004 31.938 12.1665 31.8369 12.1375 31.7502C12.123 31.6972 12.1085 31.649 12.094 31.6057C12.0602 31.4901 12.036 31.4082 12.0215 31.3601C12.0215 31.3504 12.0215 31.3456 12.0167 31.336V31.3167C11.7799 30.3534 11.5624 29.366 11.3594 28.3594C12.7369 29.8718 14.414 30.9699 16.3715 31.6731C16.879 31.8562 17.401 32.0007 17.923 32.1162H17.9279H17.9375C18.2759 32.1933 18.6142 32.2511 18.9574 32.2993C19.2764 32.3474 19.6002 32.3812 19.924 32.4052C20.1754 32.4245 20.4267 32.439 20.678 32.4438C20.7022 32.4438 20.7264 32.4438 20.7457 32.4438C27.435 33.4071 43.9263 36.8942 47.329 48.1312H47.3338Z" fill="#594018"/>
<path d="M27.348 40.6562C27.2513 41.1572 48.5711 50.7565 48.3536 68.2308C52.0318 56.8831 44.8204 47.7365 27.348 40.6562Z" fill="#3A3020"/>
<path d="M51.4277 53.044C53.8106 45.169 65.3719 42.727 70.0554 42.0527C64.3037 42.202 59.1514 43.2569 55.2316 46.1419C52.7279 48.0059 51.4422 50.2986 51.4277 53.044Z" fill="#594018"/>
<path d="M54.6992 59.4414C55.1101 59.9086 55.661 60.2602 56.2845 60.4336C57.2464 60.6985 58.3629 60.7082 59.5905 60.5444C68.1262 59.2006 73.4863 52.496 76.1737 41.2832C76.164 41.3169 76.1495 41.3747 76.1253 41.4566C76.1157 41.4855 76.106 41.5192 76.0963 41.5577C76.077 41.6204 76.0528 41.6878 76.0287 41.7696C76.0142 41.8178 75.9997 41.866 75.9803 41.9238C75.9513 42.0105 75.9223 42.102 75.8885 42.1983C75.8788 42.2272 75.8692 42.2561 75.8595 42.285C75.8305 42.3621 75.8063 42.444 75.7725 42.5307C75.7483 42.6029 75.7242 42.6703 75.6952 42.7474C75.6952 42.7522 75.6952 42.7619 75.6903 42.7667C75.6613 42.8437 75.6323 42.916 75.6033 42.9979C75.5695 43.0942 75.5308 43.1905 75.4922 43.2917C75.4583 43.3736 75.4293 43.4602 75.3907 43.5469C75.3713 43.5951 75.352 43.6433 75.3327 43.6915C75.2505 43.8986 75.1587 44.1201 75.062 44.3465C75.0233 44.438 74.9798 44.5343 74.9363 44.6307C74.9315 44.6451 74.9218 44.6596 74.917 44.674C74.8735 44.7703 74.83 44.8667 74.7865 44.9678C74.7092 45.1412 74.627 45.3146 74.54 45.4928C74.511 45.5506 74.482 45.6132 74.453 45.671C74.424 45.7337 74.395 45.7915 74.366 45.8541C74.308 45.9745 74.2452 46.0997 74.1775 46.2249C74.1485 46.2875 74.1147 46.3502 74.0808 46.4128C74.0518 46.4754 74.018 46.538 73.9842 46.6006C73.9503 46.6632 73.9165 46.7307 73.8827 46.7933C73.7812 46.986 73.6748 47.1834 73.5637 47.3809C73.4912 47.5158 73.4138 47.6458 73.3365 47.7807C73.2978 47.8481 73.2592 47.9155 73.2205 47.983C73.1819 48.0504 73.1432 48.1178 73.0997 48.1852C73.061 48.2527 73.0175 48.3201 72.9788 48.3876C72.9402 48.455 72.8967 48.5224 72.8532 48.5898C72.8097 48.6573 72.771 48.7295 72.7275 48.7921C72.6888 48.8547 72.6502 48.9125 72.6115 48.9752C72.5197 49.1197 72.423 49.269 72.3263 49.4135C72.2828 49.4809 72.2345 49.5532 72.1862 49.6206C72.162 49.6543 72.1427 49.6832 72.1185 49.7169C72.046 49.8229 71.9735 49.9288 71.8962 50.0348C71.7512 50.2419 71.6013 50.4538 71.4467 50.6561C71.3983 50.7236 71.35 50.7862 71.2968 50.8536C71.234 50.9355 71.1712 51.0174 71.1132 51.0944C71.0648 51.1571 71.0214 51.2149 70.9682 51.2775C70.915 51.3449 70.857 51.4171 70.8039 51.4846C70.7507 51.552 70.6927 51.6243 70.6347 51.6917C70.5767 51.7591 70.5235 51.8314 70.4655 51.8988C70.4075 51.9662 70.3495 52.0336 70.2915 52.1011C70.2335 52.1685 70.1755 52.2408 70.1127 52.3034C70.0547 52.3708 69.9918 52.4382 69.9338 52.5057C69.8758 52.5731 69.813 52.6405 69.7502 52.708C69.6874 52.7754 69.6245 52.8476 69.5617 52.9102C69.4989 52.9777 69.436 53.0403 69.3732 53.1077C69.3103 53.1752 69.2475 53.2378 69.1799 53.3052C69.117 53.3726 69.0493 53.4401 68.9817 53.5027C68.9188 53.5701 68.8512 53.6327 68.7835 53.7002C68.7159 53.7628 68.6482 53.8302 68.5805 53.8928C68.305 54.1577 68.015 54.4178 67.7202 54.6683C67.6574 54.7261 67.5897 54.7791 67.522 54.8369C67.4495 54.8995 67.377 54.9573 67.2997 55.0199C67.2272 55.0825 67.1499 55.1403 67.0774 55.1981C67 55.2607 66.9275 55.3185 66.8502 55.3763C66.7729 55.4341 66.6955 55.4919 66.6182 55.5497C66.2219 55.8483 65.8062 56.1325 65.3809 56.407C65.3084 56.4552 65.2359 56.4986 65.1585 56.5467C65.0957 56.5853 65.0329 56.6238 64.97 56.6623C64.8927 56.7105 64.8105 56.7586 64.7332 56.802C64.6752 56.8357 64.6172 56.8694 64.5592 56.9032C64.506 56.9321 64.4529 56.9658 64.3997 56.9947C64.3272 57.0332 64.2547 57.0766 64.1822 57.1151C64.1242 57.1488 64.0614 57.1777 64.0034 57.2114C63.955 57.2403 63.9067 57.2644 63.8535 57.2885C63.7424 57.3463 63.636 57.3992 63.5249 57.457C63.4524 57.4908 63.3799 57.5293 63.3074 57.563C63.23 57.6015 63.1575 57.6352 63.0802 57.669C63.0125 57.6979 62.9449 57.7316 62.8772 57.7605C62.7564 57.8135 62.6307 57.8713 62.5099 57.9194C62.4374 57.9483 62.3697 57.982 62.2924 58.0109C62.1667 58.0591 62.0459 58.1121 61.9202 58.1554C61.8477 58.1843 61.78 58.2084 61.7075 58.2325C61.6592 58.2518 61.606 58.271 61.5577 58.2855C61.4659 58.3192 61.3692 58.3529 61.2725 58.3866C61.1855 58.4155 61.0985 58.4444 61.0115 58.4733C60.939 58.4974 60.8714 58.5215 60.7989 58.5408C60.4122 58.6612 60.0207 58.7719 59.6147 58.8683C59.4407 58.9116 59.2667 58.9502 59.0879 58.9887C58.8365 59.0417 58.5852 59.0899 58.3339 59.1332C58.242 59.1477 58.1454 59.1669 58.0535 59.1814C57.5992 59.2536 57.1352 59.3114 56.6567 59.3499C56.473 59.3644 56.2894 59.3788 56.1009 59.3885C56.0477 59.3885 55.9994 59.3933 55.9462 59.3981C55.8592 59.3981 55.7674 59.4077 55.6804 59.4125C55.3614 59.427 55.0375 59.4318 54.7089 59.427L54.6992 59.4414Z" fill="#594018"/>
<path d="M51.4266 53.0447C51.4266 53.5986 51.4701 54.167 51.5668 54.7546C51.6924 55.5108 52.0984 56.1899 52.6929 56.6764L53.8868 57.6542C53.8868 57.6542 53.8868 57.6686 53.8868 57.6734C53.9738 58.3429 54.2589 58.9546 54.6891 59.4411C55.0178 59.4411 55.3416 59.4411 55.6606 59.4266C55.7476 59.4266 55.8394 59.417 55.9264 59.4122C55.9796 59.4122 56.0328 59.4074 56.0811 59.4025C56.2696 59.3929 56.4533 59.3785 56.6369 59.364C57.1106 59.3255 57.5794 59.2677 58.0338 59.1954C58.1304 59.181 58.2223 59.1665 58.3141 59.1473C58.5703 59.1039 58.8216 59.0557 59.0681 59.0028C59.2469 58.9642 59.4209 58.9257 59.5949 58.8824C59.9961 58.786 60.3924 58.6752 60.7791 58.5548C60.8516 58.5356 60.9192 58.5115 60.9917 58.4874C61.0787 58.4585 61.1657 58.4296 61.2527 58.4007C61.3494 58.367 61.4412 58.3333 61.5379 58.2995C61.5862 58.2803 61.6394 58.2658 61.6877 58.2466C61.7602 58.2225 61.8279 58.1936 61.9004 58.1695C62.0261 58.1214 62.1518 58.0732 62.2726 58.025C62.3451 57.9961 62.4176 57.9672 62.4901 57.9335C62.6157 57.8805 62.7366 57.8275 62.8574 57.7746C62.9251 57.7457 62.9927 57.7119 63.0604 57.683C63.1377 57.6493 63.2102 57.6108 63.2876 57.5771C63.3601 57.5434 63.4326 57.5097 63.5051 57.4711C63.6162 57.4181 63.7274 57.3603 63.8337 57.3025C63.8821 57.2784 63.9352 57.2496 63.9836 57.2255C64.0464 57.1966 64.1044 57.1629 64.1624 57.1291C64.2349 57.0906 64.3074 57.0521 64.3799 57.0087C64.4331 56.9798 64.4862 56.9461 64.5394 56.9172C64.5974 56.8835 64.6554 56.8498 64.7134 56.8161C64.7907 56.7679 64.8729 56.7245 64.9502 56.6764C65.0131 56.6379 65.0759 56.5993 65.1387 56.5608C65.2161 56.5126 65.2886 56.4693 65.3611 56.4211C65.7864 56.1514 66.2021 55.8624 66.5984 55.5638C66.6757 55.506 66.7531 55.4482 66.8304 55.3904C66.9077 55.3326 66.9851 55.2748 67.0576 55.2122C67.1349 55.1544 67.2074 55.0918 67.2799 55.034C67.3572 54.9714 67.4297 54.9135 67.5022 54.8509C67.5699 54.7931 67.6327 54.7402 67.7004 54.6824C67.9952 54.4319 68.2804 54.1718 68.5607 53.9069C68.6284 53.8443 68.6961 53.7769 68.7637 53.7142C68.8314 53.6516 68.8991 53.5842 68.9619 53.5168C69.0296 53.4541 69.0924 53.3867 69.1601 53.3193C69.2229 53.2519 69.2906 53.1892 69.3534 53.1218C69.4162 53.0544 69.4791 52.9918 69.5419 52.9243C69.6047 52.8569 69.6676 52.7895 69.7304 52.722C69.7932 52.6546 69.8512 52.5872 69.9141 52.5197C69.9769 52.4523 70.0349 52.3849 70.0929 52.3174C70.1509 52.25 70.2137 52.1826 70.2717 52.1152C70.3297 52.0477 70.3877 51.9803 70.4457 51.9129C70.5037 51.8454 70.5617 51.7732 70.6149 51.7057C70.6729 51.6383 70.7261 51.5661 70.7841 51.4986C70.8421 51.4312 70.8952 51.359 70.9484 51.2915C70.9967 51.2289 71.0451 51.1711 71.0934 51.1085C71.1562 51.0314 71.2191 50.9495 71.2771 50.8677C71.3254 50.8002 71.3786 50.7328 71.4269 50.6702C71.5816 50.4631 71.7314 50.256 71.8764 50.0489C71.9537 49.9429 72.0262 49.8369 72.0987 49.731C72.1229 49.6973 72.1422 49.6684 72.1664 49.6346C72.2147 49.5672 72.2582 49.495 72.3066 49.4275C72.4032 49.283 72.4999 49.1386 72.5917 48.9892C72.6304 48.9266 72.6691 48.8688 72.7077 48.8062C72.7512 48.7388 72.7947 48.6713 72.8334 48.6039C72.8769 48.5365 72.9156 48.469 72.9591 48.4016C73.0026 48.3342 73.0412 48.2668 73.0799 48.1993C73.1186 48.1319 73.1621 48.0645 73.2007 47.997C73.2394 47.9296 73.278 47.8622 73.3167 47.7947C73.3941 47.6599 73.4714 47.5298 73.5439 47.395C73.6551 47.1975 73.7614 47 73.8629 46.8074C73.8967 46.7447 73.9305 46.6773 73.9644 46.6147C73.9982 46.5521 74.0321 46.4895 74.0611 46.4269C74.0949 46.3642 74.1239 46.3016 74.1577 46.239C74.2206 46.1138 74.2834 45.9885 74.3462 45.8681C74.3752 45.8055 74.4042 45.7477 74.4332 45.6851C74.4622 45.6225 74.4912 45.5647 74.5202 45.5069C74.6072 45.3287 74.6894 45.1505 74.7667 44.9819C74.8102 44.8808 74.8586 44.7844 74.8972 44.6881C74.9021 44.6737 74.9117 44.6592 74.9165 44.6447C74.96 44.5484 74.9987 44.4521 75.0422 44.3606C75.1389 44.1342 75.2307 43.9126 75.3129 43.7055C75.3322 43.6574 75.3515 43.6092 75.3709 43.561C75.4047 43.4743 75.4386 43.3876 75.4724 43.3057C75.5111 43.2046 75.5497 43.1083 75.5835 43.0119C75.6125 42.9349 75.6416 42.8578 75.6706 42.7808C75.6706 42.7759 75.6705 42.7663 75.6754 42.7615C75.7044 42.6844 75.7285 42.6122 75.7527 42.5447C75.7817 42.4581 75.8107 42.3762 75.8397 42.2991C75.8494 42.2702 75.859 42.2413 75.8687 42.2124C75.9025 42.1161 75.9315 42.0246 75.9605 41.9379C75.9799 41.8849 75.9944 41.8319 76.0089 41.7837C76.033 41.7067 76.0572 41.6344 76.0766 41.5718C76.0862 41.5333 76.0959 41.4995 76.1056 41.4706C76.1297 41.3888 76.1442 41.331 76.1539 41.2973C76.1539 41.2924 76.1539 41.2876 76.1539 41.2828V41.2684C76.3182 40.594 76.4729 39.9005 76.613 39.1973C75.6464 40.2569 74.4719 41.0275 73.104 41.5188C72.7464 41.6441 72.3839 41.75 72.0166 41.8319C72.0166 41.8319 72.0117 41.8319 72.0069 41.8319C71.7701 41.8849 71.5332 41.9282 71.2916 41.9619C71.0692 41.9957 70.8421 42.0197 70.6149 42.0342C70.4409 42.0486 70.2621 42.0583 70.0881 42.0631C70.0736 42.0631 70.0542 42.0631 70.0397 42.0631C65.3514 42.7374 53.7949 45.1794 51.4121 53.0544L51.4266 53.0447Z" fill="#594018"/>
<path d="M65.4392 47.8047C65.5069 48.1563 50.5671 54.8801 50.7169 67.1285C48.1359 59.1765 53.1916 52.7657 65.4392 47.8047Z" fill="#3A3020"/>
<path d="M0.0839844 78.8081C31.1768 67.4074 62.0037 65.3459 92.5213 74.4588C61.0419 69.0739 30.1569 69.7675 0.0839844 78.8081Z" fill="#594018"/>
<path d="M19.0039 30.502C19.0957 30.5116 20.1542 30.5935 21.8266 30.8343C21.8024 30.8343 21.7782 30.8343 21.7589 30.8343C20.8309 30.8102 19.9126 30.7043 19.0087 30.5068L19.0039 30.502Z" fill="#8BC441"/>
<path d="M48.4094 46.5214C45.0068 35.2845 28.5155 31.7973 21.8262 30.834C30.038 31.0507 37.3846 32.5535 42.9816 36.6716C46.5486 39.3303 48.3853 42.6056 48.4143 46.5214H48.4094Z" fill="url(#paint0_linear_1749_8316)"/>
<path d="M43.7458 55.6541C43.1561 56.3236 42.3779 56.8245 41.4838 57.0702C40.1111 57.4507 38.5161 57.4603 36.7664 57.2291C24.5865 55.3121 16.9353 45.7417 13.0977 29.7461C13.1122 29.7943 13.1363 29.8713 13.1702 29.9917C13.1847 30.0351 13.1992 30.0832 13.2137 30.1362C13.2427 30.2229 13.2717 30.3241 13.3103 30.4349C13.3297 30.5023 13.3538 30.5745 13.3828 30.6516C13.4215 30.772 13.465 30.9021 13.5133 31.0417C13.5278 31.0851 13.5423 31.1236 13.5568 31.167C13.5955 31.2777 13.6342 31.3933 13.6825 31.5186C13.7163 31.6197 13.755 31.7209 13.7937 31.8268C13.7937 31.8364 13.7985 31.8461 13.8033 31.8557C13.842 31.9617 13.8855 32.0725 13.929 32.1832C13.9773 32.3181 14.0353 32.4578 14.0885 32.5975C14.1368 32.7179 14.1803 32.8383 14.2335 32.9587C14.2577 33.0261 14.2867 33.0936 14.3157 33.1658C14.4365 33.4644 14.567 33.7775 14.7023 34.1002C14.7603 34.2351 14.8183 34.3699 14.8812 34.5096C14.8908 34.5289 14.9005 34.553 14.9102 34.5722C14.973 34.7071 15.0358 34.8516 15.0987 34.9913C15.2098 35.2369 15.3258 35.4874 15.4515 35.7426C15.4902 35.8293 15.5337 35.9112 15.5772 35.9979C15.6207 36.0846 15.6593 36.1713 15.7028 36.258C15.7898 36.4314 15.8768 36.6096 15.9687 36.7878C16.0122 36.8793 16.0605 36.966 16.104 37.0576C16.1475 37.1491 16.1958 37.2358 16.2442 37.3273C16.2925 37.4188 16.3408 37.5103 16.3892 37.6018C16.5342 37.8764 16.6888 38.1557 16.8435 38.4399C16.9498 38.6277 17.0562 38.8156 17.1673 39.0082C17.2205 39.1046 17.2785 39.2009 17.3365 39.2972C17.3896 39.3936 17.4477 39.4899 17.5057 39.5862C17.5637 39.6826 17.6217 39.7789 17.6797 39.8752C17.7377 39.9715 17.8005 40.0679 17.8585 40.169C17.9165 40.2702 17.9793 40.3665 18.0422 40.4628C18.0953 40.5495 18.1533 40.6362 18.2065 40.7229C18.337 40.93 18.4771 41.1372 18.6125 41.3443C18.6753 41.4454 18.743 41.5417 18.8106 41.6429C18.8445 41.6911 18.8735 41.7344 18.9073 41.7826C19.0088 41.9319 19.1151 42.086 19.2215 42.2353C19.4293 42.5339 19.642 42.8325 19.8643 43.1264C19.932 43.2227 20.0045 43.3142 20.077 43.4105C20.164 43.5261 20.251 43.6417 20.3428 43.7573C20.4105 43.844 20.4781 43.9307 20.5458 44.0174C20.6231 44.1186 20.7005 44.2149 20.7826 44.3112C20.86 44.4124 20.9421 44.5087 21.0243 44.605C21.1065 44.7014 21.1838 44.8025 21.266 44.8988C21.3481 44.9952 21.4303 45.0915 21.5125 45.1927C21.5946 45.2938 21.6816 45.3901 21.7638 45.4865C21.8508 45.5828 21.933 45.6791 22.02 45.7754C22.107 45.8718 22.194 45.9681 22.281 46.0644C22.3728 46.1656 22.4598 46.2619 22.5516 46.3582C22.6386 46.4546 22.7256 46.5461 22.8175 46.6376C22.9093 46.7339 22.9963 46.8254 23.093 46.9218C23.1848 47.0181 23.2766 47.1096 23.3733 47.206C23.4651 47.3023 23.5618 47.3938 23.6585 47.4853C23.7551 47.5768 23.847 47.6683 23.9485 47.7598C24.3448 48.1355 24.7556 48.5064 25.1761 48.8677C25.268 48.9495 25.3646 49.0266 25.4565 49.1085C25.5628 49.1952 25.6643 49.2819 25.7755 49.3686C25.8818 49.4553 25.9881 49.542 26.0945 49.6239C26.2008 49.7106 26.312 49.7924 26.4183 49.8791C26.5295 49.9658 26.6358 50.0477 26.747 50.1296C27.3125 50.5534 27.9021 50.9628 28.5111 51.3481C28.6175 51.4156 28.719 51.483 28.8301 51.5456C28.922 51.6034 29.009 51.6564 29.1008 51.7094C29.212 51.7768 29.328 51.8443 29.4391 51.9117C29.5213 51.9599 29.6035 52.008 29.6905 52.0562C29.7678 52.0995 29.8403 52.1429 29.9176 52.1862C30.0191 52.244 30.1206 52.3018 30.227 52.3548C30.314 52.403 30.3961 52.4463 30.4831 52.4897C30.5556 52.5282 30.6233 52.5667 30.6958 52.6005C30.8505 52.6823 31.01 52.7594 31.1695 52.8365C31.271 52.8894 31.3724 52.9376 31.4788 52.9858C31.5851 53.0388 31.6915 53.0917 31.8026 53.1399C31.8993 53.1833 31.996 53.2266 32.0926 53.2699C32.2666 53.347 32.4455 53.4241 32.6195 53.4963C32.721 53.5397 32.8224 53.583 32.9288 53.6216C33.1028 53.6938 33.2816 53.7612 33.4604 53.8287C33.5619 53.8672 33.6635 53.9057 33.7649 53.9443C33.8374 53.9732 33.9051 53.9972 33.9776 54.0213C34.1129 54.0695 34.2483 54.1177 34.3836 54.161C34.5093 54.2043 34.6349 54.2477 34.7558 54.2862C34.8573 54.32 34.9588 54.3536 35.0603 54.3825C35.6113 54.5559 36.1719 54.7101 36.7471 54.8498C36.9936 54.9124 37.2449 54.9653 37.4963 55.0183C37.8539 55.0954 38.2116 55.1628 38.5741 55.2206C38.7046 55.2447 38.8448 55.2688 38.9753 55.288C39.6229 55.3892 40.2899 55.4711 40.9666 55.5289C41.2276 55.553 41.4934 55.5722 41.7593 55.5867C41.8318 55.5867 41.9043 55.5963 41.9816 55.6011C42.1073 55.606 42.2329 55.6156 42.3586 55.6204C42.8129 55.6397 43.2769 55.6493 43.7458 55.6445V55.6541Z" fill="url(#paint1_linear_1749_8316)"/>
<path d="M48.41 46.5218C48.4148 47.3117 48.3471 48.1257 48.207 48.9637C48.0233 50.0426 47.4433 51.0108 46.5975 51.7043L44.8913 53.0963C44.8913 53.0963 44.8913 53.1156 44.8913 53.1252C44.7705 54.0789 44.3596 54.9555 43.7458 55.6491C43.277 55.6491 42.813 55.6491 42.3587 55.625C42.233 55.625 42.1073 55.6154 41.9817 55.6057C41.9043 55.6057 41.8318 55.5961 41.7593 55.5913C41.4935 55.5768 41.2277 55.5576 40.9667 55.5335C40.29 55.4757 39.623 55.3938 38.9753 55.2927C38.84 55.2734 38.7047 55.2493 38.5742 55.2252C38.2117 55.1626 37.854 55.0952 37.4963 55.0229C37.245 54.9699 36.9937 54.9122 36.7472 54.8544C36.172 54.7195 35.6113 54.5605 35.0603 54.3871C34.9588 54.3582 34.8573 54.3245 34.7558 54.2908C34.6302 54.2523 34.5045 54.209 34.3837 54.1656C34.2483 54.1174 34.113 54.0693 33.9777 54.0259C33.9052 54.0018 33.8375 53.9729 33.765 53.9489C33.6635 53.9103 33.562 53.8718 33.4605 53.8333C33.2817 53.7658 33.1028 53.6984 32.9288 53.6262C32.8273 53.5828 32.7258 53.5395 32.6195 53.5009C32.4455 53.4287 32.2667 53.3516 32.0927 53.2745C31.996 53.2312 31.8993 53.1879 31.8027 53.1445C31.6915 53.0963 31.5852 53.0434 31.4788 52.9904C31.3725 52.9422 31.271 52.8892 31.1695 52.8411C31.01 52.764 30.8553 52.6869 30.6958 52.605C30.6233 52.5665 30.5557 52.5328 30.4832 52.4943C30.3962 52.4509 30.3092 52.4028 30.227 52.3594C30.1255 52.3064 30.024 52.2486 29.9177 52.1908C29.8403 52.1475 29.763 52.1041 29.6905 52.0608C29.6083 52.0126 29.5262 51.9644 29.4392 51.9163C29.3232 51.8488 29.212 51.7814 29.1008 51.714C29.009 51.661 28.9172 51.6032 28.8302 51.5502C28.7239 51.4828 28.6175 51.4202 28.5112 51.3527C27.9022 50.9674 27.3125 50.558 26.747 50.1342C26.6358 50.0523 26.5247 49.9704 26.4184 49.8837C26.3072 49.8018 26.2009 49.7151 26.0945 49.6284C25.9882 49.5417 25.8819 49.4599 25.7755 49.3732C25.6692 49.2865 25.5629 49.1998 25.4565 49.1131C25.3599 49.0312 25.268 48.9541 25.1762 48.8722C24.7557 48.511 24.3449 48.1449 23.9485 47.7644C23.8519 47.6729 23.7552 47.5814 23.6585 47.4899C23.5619 47.3984 23.47 47.3021 23.3734 47.2106C23.2767 47.119 23.1849 47.0227 23.093 46.9264C23.0012 46.83 22.9094 46.7385 22.8175 46.6422C22.7257 46.5459 22.6387 46.4544 22.5517 46.3628C22.4599 46.2665 22.3729 46.1702 22.281 46.069C22.194 45.9727 22.107 45.8764 22.02 45.78C21.933 45.6837 21.846 45.5874 21.7639 45.4911C21.6769 45.3947 21.5947 45.2984 21.5125 45.1973C21.4304 45.1009 21.3482 45.0046 21.266 44.9034C21.1839 44.8071 21.1017 44.706 21.0244 44.6096C20.9422 44.5133 20.8649 44.4122 20.7827 44.3158C20.7005 44.2195 20.6232 44.1184 20.5459 44.022C20.4782 43.9353 20.4105 43.8486 20.3429 43.7619C20.2559 43.6463 20.1689 43.5356 20.077 43.4151C20.0045 43.3188 19.9369 43.2273 19.8644 43.131C19.642 42.8371 19.4294 42.5385 19.2215 42.2399C19.1152 42.0906 19.0089 41.9365 18.9074 41.7872C18.8735 41.739 18.8445 41.6956 18.8107 41.6475C18.743 41.5463 18.6802 41.45 18.6125 41.3488C18.4772 41.1417 18.337 40.9346 18.2065 40.7275C18.1534 40.6408 18.0954 40.5541 18.0422 40.4674C17.9794 40.3711 17.9214 40.2748 17.8585 40.1736C17.7957 40.0773 17.7377 39.981 17.6797 39.8798C17.6217 39.7835 17.5637 39.6872 17.5057 39.5908C17.4477 39.4945 17.3897 39.3981 17.3365 39.3018C17.2785 39.2055 17.2254 39.1092 17.1674 39.0128C17.0562 38.825 16.9499 38.6372 16.8435 38.4445C16.6889 38.1603 16.5342 37.881 16.3892 37.6064C16.3409 37.5149 16.2925 37.4234 16.2442 37.3319C16.1959 37.2404 16.1475 37.1489 16.104 37.0622C16.0557 36.9706 16.0122 36.8839 15.9687 36.7924C15.8769 36.6142 15.7899 36.436 15.7029 36.2626C15.6594 36.1759 15.6159 36.0892 15.5772 36.0025C15.5337 35.9158 15.495 35.8291 15.4515 35.7472C15.3259 35.492 15.2147 35.2415 15.0987 34.9959C15.0359 34.8562 14.973 34.7117 14.9102 34.5768C14.9005 34.5576 14.8909 34.5335 14.8812 34.5142C14.8184 34.3794 14.7604 34.2397 14.7024 34.1048C14.5622 33.7821 14.4317 33.469 14.3157 33.1704C14.2867 33.0982 14.2577 33.0307 14.2335 32.9633C14.1852 32.8429 14.1369 32.7177 14.0885 32.6021C14.0354 32.4624 13.9774 32.3227 13.929 32.1878C13.8855 32.0771 13.8469 31.9663 13.8034 31.8603C13.8034 31.8507 13.7985 31.841 13.7937 31.8314C13.755 31.7255 13.7164 31.6195 13.6825 31.5232C13.639 31.3979 13.5955 31.2823 13.5569 31.1716C13.5424 31.1282 13.5279 31.0849 13.5134 31.0463C13.465 30.9066 13.4215 30.7766 13.3829 30.6562C13.3587 30.5791 13.3345 30.5069 13.3104 30.4395C13.2765 30.3287 13.2427 30.2275 13.2137 30.1408C13.1992 30.0878 13.1847 30.0397 13.1702 29.9963C13.1364 29.8807 13.1122 29.7988 13.0977 29.7507C13.0977 29.741 13.0977 29.7362 13.0929 29.7266V29.7073C12.856 28.744 12.6385 27.7567 12.4355 26.75C13.813 28.2624 15.4902 29.3606 17.4477 30.0638C17.9552 30.2468 18.4772 30.3913 18.9992 30.5069H19.004H19.0137C19.352 30.5839 19.6904 30.6417 20.0335 30.6899C20.3525 30.7381 20.6764 30.7718 21.0002 30.7959C21.2515 30.8151 21.5029 30.8296 21.7542 30.8344C21.7784 30.8344 21.8025 30.8344 21.8219 30.8344C28.5112 31.7977 45.0025 35.2849 48.4051 46.5218H48.41Z" fill="#8BC441"/>
<path d="M28.4242 39.0469C28.3275 39.5478 49.6473 49.1471 49.4298 66.6214C53.1079 55.2737 45.8966 46.1272 28.4242 39.0469Z" fill="#594018"/>
<path d="M52.5039 51.4288C54.8867 43.5538 66.448 41.1118 71.1315 40.4375C65.3799 40.5868 60.2276 41.6416 56.3077 44.5267C53.8041 46.3907 52.5184 48.6834 52.5039 51.4288Z" fill="url(#paint2_linear_1749_8316)"/>
<path d="M55.7754 57.8301C56.1862 58.2973 56.7372 58.6489 57.3607 58.8223C58.3226 59.0872 59.439 59.0969 60.6667 58.9331C69.2024 57.5893 74.5625 50.8847 77.2498 39.6719C77.2402 39.7056 77.2257 39.7634 77.2015 39.8453C77.1918 39.8742 77.1822 39.9079 77.1725 39.9464C77.1532 40.009 77.129 40.0765 77.1048 40.1583C77.0903 40.2065 77.0758 40.2547 77.0565 40.3125C77.0275 40.3992 76.9985 40.4907 76.9647 40.587C76.955 40.6159 76.9453 40.6448 76.9357 40.6737C76.9067 40.7508 76.8825 40.8327 76.8487 40.9194C76.8245 40.9916 76.8003 41.059 76.7713 41.1361C76.7713 41.1409 76.7713 41.1506 76.7665 41.1554C76.7375 41.2324 76.7085 41.3047 76.6795 41.3866C76.6457 41.4829 76.607 41.5792 76.5683 41.6804C76.5345 41.7622 76.5055 41.8489 76.4668 41.9356C76.4475 41.9838 76.4282 42.032 76.4088 42.0801C76.3267 42.2872 76.2348 42.5088 76.1382 42.7352C76.0995 42.8267 76.056 42.923 76.0125 43.0194C76.0077 43.0338 75.998 43.0482 75.9932 43.0627C75.9497 43.159 75.9062 43.2554 75.8627 43.3565C75.7853 43.5299 75.7032 43.7033 75.6162 43.8815C75.5872 43.9393 75.5582 44.0019 75.5292 44.0597C75.5002 44.1223 75.4712 44.1801 75.4422 44.2427C75.3842 44.3632 75.3213 44.4884 75.2537 44.6136C75.2247 44.6762 75.1908 44.7389 75.157 44.8015C75.128 44.8641 75.0942 44.9267 75.0603 44.9893C75.0265 45.0519 74.9927 45.1194 74.9589 45.182C74.8574 45.3746 74.751 45.5721 74.6399 45.7696C74.5674 45.9045 74.49 46.0345 74.4127 46.1693C74.374 46.2368 74.3353 46.3042 74.2967 46.3717C74.258 46.4391 74.2193 46.5065 74.1758 46.5739C74.1372 46.6414 74.0937 46.7088 74.055 46.7762C74.0163 46.8437 73.9729 46.9111 73.9294 46.9785C73.8859 47.0459 73.8472 47.1182 73.8037 47.1808C73.765 47.2434 73.7264 47.3012 73.6877 47.3639C73.5959 47.5084 73.4992 47.6577 73.4025 47.8022C73.359 47.8696 73.3107 47.9418 73.2624 48.0093C73.2382 48.043 73.2188 48.0719 73.1947 48.1056C73.1222 48.2116 73.0497 48.3175 72.9723 48.4235C72.8273 48.6306 72.6775 48.8425 72.5229 49.0448C72.4745 49.1123 72.4262 49.1749 72.373 49.2423C72.3102 49.3242 72.2474 49.406 72.1894 49.4831C72.141 49.5457 72.0975 49.6035 72.0444 49.6661C71.9912 49.7336 71.9332 49.8058 71.88 49.8732C71.8268 49.9407 71.7689 50.0129 71.7109 50.0804C71.6529 50.1478 71.5997 50.22 71.5417 50.2875C71.4837 50.3549 71.4257 50.4223 71.3677 50.4898C71.3097 50.5572 71.2517 50.6294 71.1889 50.6921C71.1309 50.7595 71.068 50.8269 71.01 50.8943C70.952 50.9618 70.8892 51.0292 70.8264 51.0967C70.7635 51.1641 70.7007 51.2363 70.6379 51.2989C70.575 51.3664 70.5122 51.429 70.4494 51.4964C70.3865 51.5638 70.3237 51.6265 70.256 51.6939C70.1932 51.7613 70.1255 51.8288 70.0579 51.8914C69.995 51.9588 69.9274 52.0214 69.8597 52.0889C69.792 52.1515 69.7244 52.2189 69.6567 52.2815C69.3812 52.5464 69.0912 52.8065 68.7964 53.057C68.7335 53.1148 68.6659 53.1678 68.5982 53.2256C68.5257 53.2882 68.4532 53.346 68.3759 53.4086C68.3034 53.4712 68.226 53.529 68.1535 53.5868C68.0762 53.6494 68.0037 53.7072 67.9264 53.765C67.849 53.8228 67.7717 53.8806 67.6944 53.9384C67.298 54.237 66.8824 54.5212 66.457 54.7957C66.3845 54.8439 66.312 54.8872 66.2347 54.9354C66.1719 54.9739 66.109 55.0125 66.0462 55.051C65.9689 55.0992 65.8867 55.1473 65.8094 55.1907C65.7514 55.2244 65.6934 55.2581 65.6354 55.2918C65.5822 55.3207 65.529 55.3544 65.4759 55.3833C65.4034 55.4219 65.3309 55.4652 65.2584 55.5038C65.2004 55.5375 65.1375 55.5664 65.0795 55.6001C65.0312 55.629 64.9829 55.6531 64.9297 55.6771C64.8185 55.7349 64.7122 55.7879 64.601 55.8457C64.5285 55.8795 64.456 55.918 64.3835 55.9517C64.3062 55.9902 64.2337 56.0239 64.1564 56.0577C64.0887 56.0866 64.021 56.1203 63.9534 56.1492C63.8325 56.2022 63.7069 56.2599 63.586 56.3081C63.5135 56.337 63.4459 56.3707 63.3685 56.3996C63.2429 56.4478 63.122 56.5008 62.9964 56.5441C62.9239 56.573 62.8562 56.5971 62.7837 56.6212C62.7354 56.6405 62.6822 56.6597 62.6339 56.6742C62.542 56.7079 62.4454 56.7416 62.3487 56.7753C62.2617 56.8042 62.1747 56.8331 62.0877 56.862C62.0152 56.8861 61.9475 56.9102 61.875 56.9295C61.4884 57.0499 61.0969 57.1606 60.6909 57.257C60.5169 57.3003 60.3429 57.3389 60.164 57.3774C59.9127 57.4304 59.6614 57.4785 59.41 57.5219C59.3182 57.5363 59.2216 57.5556 59.1297 57.5701C58.6754 57.6423 58.2114 57.7001 57.7329 57.7386C57.5492 57.7531 57.3656 57.7675 57.1771 57.7772C57.1239 57.7772 57.0755 57.782 57.0224 57.7868C56.9354 57.7868 56.8436 57.7964 56.7566 57.8012C56.4376 57.8157 56.1137 57.8205 55.7851 57.8157L55.7754 57.8301Z" fill="url(#paint3_linear_1749_8316)"/>
<path d="M52.5028 51.4295C52.5028 51.9834 52.5463 52.5518 52.643 53.1394C52.7686 53.8956 53.1746 54.5747 53.7691 55.0612L54.9629 56.0389C54.9629 56.0389 54.9629 56.0534 54.9629 56.0582C55.0499 56.7277 55.3351 57.3394 55.7653 57.8258C56.0939 57.8258 56.4178 57.8259 56.7368 57.8114C56.8238 57.8114 56.9156 57.8018 57.0026 57.7969C57.0558 57.7969 57.1089 57.7921 57.1573 57.7873C57.3458 57.7777 57.5294 57.7632 57.7131 57.7488C58.1868 57.7103 58.6556 57.6524 59.1099 57.5802C59.2066 57.5657 59.2984 57.5513 59.3903 57.532C59.6464 57.4887 59.8978 57.4405 60.1443 57.3875C60.3231 57.349 60.4971 57.3105 60.6711 57.2671C61.0723 57.1708 61.4686 57.06 61.8553 56.9396C61.9278 56.9203 61.9954 56.8963 62.0679 56.8722C62.1549 56.8433 62.2419 56.8144 62.3289 56.7855C62.4256 56.7518 62.5174 56.718 62.6141 56.6843C62.6624 56.6651 62.7156 56.6506 62.7639 56.6314C62.8364 56.6073 62.9041 56.5784 62.9766 56.5543C63.1023 56.5061 63.2279 56.4579 63.3488 56.4098C63.4213 56.3809 63.4938 56.352 63.5663 56.3183C63.6919 56.2653 63.8128 56.2123 63.9336 56.1593C64.0013 56.1304 64.0689 56.0967 64.1366 56.0678C64.2139 56.0341 64.2864 55.9956 64.3638 55.9618C64.4363 55.9281 64.5088 55.8944 64.5813 55.8559C64.6924 55.8029 64.8036 55.7451 64.9099 55.6873C64.9583 55.6632 65.0114 55.6343 65.0598 55.6103C65.1226 55.5814 65.1806 55.5476 65.2386 55.5139C65.3111 55.4754 65.3836 55.4369 65.4561 55.3935C65.5093 55.3646 65.5624 55.3309 65.6156 55.302C65.6736 55.2683 65.7316 55.2345 65.7896 55.2008C65.8669 55.1527 65.9491 55.1093 66.0264 55.0612C66.0893 55.0226 66.1521 54.9841 66.2149 54.9456C66.2922 54.8974 66.3648 54.854 66.4373 54.8059C66.8626 54.5361 67.2783 54.2472 67.6746 53.9485C67.7519 53.8908 67.8292 53.833 67.9066 53.7752C67.9839 53.7174 68.0612 53.6596 68.1337 53.597C68.2111 53.5392 68.2836 53.4765 68.3561 53.4187C68.4334 53.3561 68.5059 53.2983 68.5784 53.2357C68.6461 53.1779 68.7089 53.1249 68.7766 53.0671C69.0714 52.8167 69.3566 52.5566 69.6369 52.2917C69.7046 52.2291 69.7722 52.1616 69.8399 52.099C69.9076 52.0364 69.9752 51.969 70.0381 51.9015C70.1057 51.8389 70.1686 51.7715 70.2362 51.704C70.2991 51.6366 70.3667 51.574 70.4296 51.5066C70.4924 51.4391 70.5552 51.3765 70.6181 51.3091C70.6809 51.2417 70.7437 51.1742 70.8066 51.1068C70.8694 51.0394 70.9274 50.9719 70.9902 50.9045C71.0531 50.8371 71.1111 50.7697 71.1691 50.7022C71.2271 50.6348 71.2899 50.5673 71.3479 50.4999C71.4059 50.4325 71.4639 50.3651 71.5219 50.2976C71.5799 50.2302 71.6379 50.1579 71.6911 50.0905C71.7491 50.0231 71.8022 49.9508 71.8602 49.8834C71.9182 49.816 71.9714 49.7437 72.0246 49.6763C72.0729 49.6137 72.1212 49.5559 72.1696 49.4933C72.2324 49.4162 72.2952 49.3343 72.3532 49.2524C72.4016 49.185 72.4547 49.1176 72.5031 49.055C72.6577 48.8478 72.8076 48.6407 72.9526 48.4336C73.0299 48.3277 73.1024 48.2217 73.1749 48.1158C73.1991 48.082 73.2184 48.0531 73.2426 48.0194C73.2909 47.952 73.3344 47.8797 73.3827 47.8123C73.4794 47.6678 73.5761 47.5233 73.6679 47.374C73.7066 47.3114 73.7452 47.2536 73.7839 47.191C73.8274 47.1235 73.8709 47.0561 73.9096 46.9887C73.9531 46.9213 73.9917 46.8538 74.0352 46.7864C74.0787 46.719 74.1174 46.6515 74.1561 46.5841C74.1947 46.5167 74.2382 46.4492 74.2769 46.3818C74.3156 46.3144 74.3542 46.2469 74.3929 46.1795C74.4702 46.0446 74.5476 45.9146 74.6201 45.7797C74.7312 45.5823 74.8376 45.3848 74.9391 45.1921C74.9729 45.1295 75.0067 45.0621 75.0406 44.9995C75.0744 44.9368 75.1082 44.8742 75.1372 44.8116C75.1711 44.749 75.2001 44.6864 75.2339 44.6238C75.2967 44.4986 75.3596 44.3733 75.4224 44.2529C75.4514 44.1903 75.4804 44.1325 75.5094 44.0699C75.5384 44.0073 75.5674 43.9495 75.5964 43.8917C75.6834 43.7135 75.7656 43.5352 75.8429 43.3667C75.8864 43.2655 75.9347 43.1692 75.9734 43.0729C75.9782 43.0584 75.9879 43.044 75.9927 43.0295C76.0362 42.9332 76.0749 42.8368 76.1184 42.7453C76.2151 42.519 76.3069 42.2974 76.3891 42.0903C76.4084 42.0421 76.4277 41.994 76.4471 41.9458C76.4809 41.8591 76.5147 41.7724 76.5486 41.6905C76.5872 41.5894 76.6259 41.493 76.6597 41.3967C76.6887 41.3197 76.7177 41.2426 76.7467 41.1655C76.7467 41.1607 76.7467 41.1511 76.7516 41.1462C76.7806 41.0692 76.8047 40.9969 76.8289 40.9295C76.8579 40.8428 76.8869 40.7609 76.9159 40.6839C76.9256 40.655 76.9352 40.6261 76.9449 40.5972C76.9787 40.5008 77.0077 40.4093 77.0367 40.3226C77.0561 40.2696 77.0706 40.2167 77.0851 40.1685C77.1092 40.0914 77.1334 40.0192 77.1527 39.9566C77.1624 39.9181 77.1721 39.8843 77.1817 39.8554C77.2059 39.7735 77.2204 39.7158 77.2301 39.682C77.2301 39.6772 77.2301 39.6724 77.2301 39.6676V39.6531C77.3944 38.9788 77.5491 38.2852 77.6892 37.582C76.7226 38.6417 75.5481 39.4123 74.1802 39.9036C73.8226 40.0288 73.4601 40.1348 73.0927 40.2167C73.0927 40.2167 73.0879 40.2167 73.0831 40.2167C72.8462 40.2696 72.6094 40.313 72.3677 40.3467C72.1454 40.3804 71.9182 40.4045 71.6911 40.419C71.5171 40.4334 71.3382 40.443 71.1642 40.4478C71.1497 40.4478 71.1304 40.4478 71.1159 40.4478C66.4276 41.1222 54.8711 43.5641 52.4883 51.4391L52.5028 51.4295Z" fill="#8BC441"/>
<path d="M66.5115 46.1895C66.5792 46.5411 51.6394 53.2649 51.7892 65.5133C49.2082 57.5612 54.2639 51.1505 66.5115 46.1895Z" fill="#594018"/>
<path d="M1.16016 77.1987C32.2529 65.798 63.0799 63.7366 93.5975 72.8494C62.118 67.4645 31.2331 68.1581 1.16016 77.1987Z" fill="#8BC441"/>
<path d="M1.16181 77.1991L0.0839844 78.8078C32.6219 70.4367 63.5987 68.3319 92.5213 74.4585L93.5991 72.8497C62.284 66.5546 31.4812 68.1296 1.16181 77.1991Z" fill="#594018"/>
<path d="M86.2892 74.3125L85.1679 75.9742L83.6309 75.8441L86.2892 74.3125Z" fill="#594018"/>
</g>
<defs>
<linearGradient id="paint0_linear_1749_8316" x1="21.8262" y1="38.6753" x2="48.4094" y2="38.6753" gradientUnits="userSpaceOnUse">
<stop stop-color="#CBDE8C"/>
<stop offset="1" stop-color="#8BC441"/>
</linearGradient>
<linearGradient id="paint1_linear_1749_8316" x1="13.0977" y1="43.5647" x2="43.7458" y2="43.5647" gradientUnits="userSpaceOnUse">
<stop stop-color="#CBDE8C"/>
<stop offset="0.63" stop-color="#8BC441"/>
</linearGradient>
<linearGradient id="paint2_linear_1749_8316" x1="71.1364" y1="45.9331" x2="52.5039" y2="45.9331" gradientUnits="userSpaceOnUse">
<stop stop-color="#CBDE8C"/>
<stop offset="1" stop-color="#8BC441"/>
</linearGradient>
<linearGradient id="paint3_linear_1749_8316" x1="77.2498" y1="49.3579" x2="55.7754" y2="49.3579" gradientUnits="userSpaceOnUse">
<stop stop-color="#CBDE8C"/>
<stop offset="0.72" stop-color="#8BC441"/>
</linearGradient>
<clipPath id="clip0_1749_8316">
<rect width="336" height="105" fill="white"/>
</clipPath>
</defs>
</svg>
